<svg
    xmlns="http://www.w3.org/2000/svg"
    viewBox="0 0 1785 1034"
    id="vector">
    <path
        id="path_1"
        d="M 915 24.7 C 848 27.1 791.8 32.1 748 39.6 C 732.1 42.3 708.3 47.8 707.6 48.8 C 707.4 49.2 726.8 49.5 750.8 49.5 C 784 49.6 799.4 50 815 51.3 C 1037.1 70.5 1270.2 156.7 1404.5 269.1 C 1470.3 324.3 1512.7 385.7 1528 448.2 C 1533.5 470.6 1534.5 479.4 1534.5 505.5 C 1534.5 532.5 1533.4 541.6 1527.4 565.3 C 1523.2 582.2 1519.4 592.3 1513.9 601.4 C 1511.7 605.1 1510 608.4 1510.3 608.6 C 1511.4 609.7 1564.9 583.7 1589 570.2 C 1669.1 525.6 1726 473.7 1753 420.5 C 1771.4 384.4 1777.2 345.9 1769.5 311.6 C 1760.7 272.2 1741.2 238.1 1709 206 C 1605 101.9 1372.2 36.9 1061 25 C 1038.7 24.2 935.9 23.9 915 24.7 Z"
        fill="#ce541b"
        stroke="#00000000"
        stroke-width="0.1"/>
    <path
        id="path_2"
        d="M 268.5 182.1 C 124.3 249.4 44 325.6 26.8 411.1 C 23.6 427.3 23.6 454.9 26.8 469.5 C 35.5 509.5 55.7 544.9 88.4 577.5 C 192.5 681.2 425.8 746.2 736 758 C 769.7 759.3 858 759.3 890 758 C 957.4 755.3 1011 750.2 1054 742.4 C 1070 739.5 1088.8 735.1 1089.4 734.2 C 1089.6 733.8 1074.9 733.7 1056.7 733.8 C 1038.4 734 1015 733.7 1004.5 733.1 C 827.1 722.5 627.9 663.2 484.5 578.2 C 350.8 498.9 274 403.4 263.1 302.8 C 261.7 290.3 261.7 264.7 263.1 252.2 C 266.2 223.5 275.4 192.5 284.9 178.5 C 287.1 175.3 287.5 174 286.3 174.1 C 285.8 174.1 277.9 177.7 268.5 182.1 Z"
        fill="#ce5e1b"
        stroke="#00000000"
        stroke-width="0.1"/>
    <path
        id="path_3"
        d="M 1283 229 C 1258 233.7 1240.7 255.8 1242.2 280.8 C 1243.4 300.2 1256.1 312 1275.9 312 C 1299.7 312 1321.1 295 1325.9 272.2 C 1327.5 264.4 1327.3 259 1324.9 251.4 C 1320 235.4 1301.4 225.5 1283 229 Z"
        fill="#ffffff"
        stroke="#00000000"
        stroke-width="0.1"/>
    <path
        id="path_4"
        d="M 559.5 258.7 C 505.2 262.9 471.3 275.6 443.5 302.2 C 417.9 326.6 404.1 359 402.3 398.5 C 400.4 441.7 417 471.6 452.5 488.6 C 471.9 498 492.6 502.1 520.5 502.3 C 591.4 502.6 644.3 474.7 669.8 423.5 C 683.2 396.5 688.3 358.7 682.4 330.1 C 674.1 289.9 645.9 266.9 597.5 260.6 C 586.1 259.1 566.5 258.1 559.5 258.7 Z M 576.1 289.2 C 586.2 293.8 592.2 302.1 596.2 316.8 C 600.6 333.4 598.1 368 590.5 394.5 C 573.9 452.7 541.2 484.2 511.5 470.6 C 504.4 467.4 499.9 463.1 496.1 456.1 C 486.9 438.9 485.7 410.4 492.6 374.8 C 501.8 327.3 520 297.7 545.5 288.4 C 555 285 567.7 285.3 576.1 289.2 Z"
        fill="#ffffff"
        stroke="#00000000"
        stroke-width="0.1"/>
    <path
        id="path_6"
        d="M 814.5 328.4 C 805.5 330.2 794.6 334.3 790.2 337.6 C 788.4 339 786.7 340 786.6 339.9 C 786.4 339.7 785.5 338 784.6 336.2 L 782.9 333 L 747.5 333 C 722.3 333 712 333.3 712 334.1 C 712 334.7 705.7 371.4 698 415.5 C 690.3 459.7 684 496.3 684 496.9 C 684 497.7 695.2 498 719.9 498 L 755.8 498 L 756.3 495.7 C 756.6 494.5 761.6 468.2 767.4 437.4 C 773.3 406.5 778.7 379.3 779.5 376.9 C 783.2 366.4 789.6 361.2 797.2 362.4 C 805.6 363.8 808.7 368.8 807.6 379.1 C 807.1 383.9 803.2 406.3 787.4 494.7 L 786.8 498 L 822.9 498 L 859 498 L 859.5 495.7 C 859.8 494.5 864.5 468.5 869.9 438 C 875.4 407.2 880.7 380 881.9 376.9 C 887.2 362.8 901.2 357.7 908.3 367.2 C 912.1 372.3 911.7 376.6 900.6 438.4 C 894.8 470.8 890 497.4 890 497.6 C 890 497.9 906.8 497.9 927.2 497.8 L 964.5 497.5 L 973.3 445 C 981.6 395.5 982.2 391.6 982.3 376.5 C 982.5 361.8 982.3 360 980.1 354.7 C 975.3 342.5 965.6 334.1 951.5 329.7 C 941.6 326.6 922.3 326.7 909.5 329.9 C 899.7 332.3 887.2 337.9 879.7 343.3 L 874.9 346.8 L 870.4 342 C 865.5 336.8 857.4 332.1 849 329.6 C 841.4 327.3 823.3 326.7 814.5 328.4 Z"
        fill="#ffffff"
        stroke="#00000000"
        stroke-width="0.1"/>
    <path
        id="path_7"
        d="M 1127.5 328 C 1118.2 329.5 1109.1 332.6 1102.6 336.5 C 1097.1 339.8 1096.6 339.9 1095.4 338.3 C 1094.7 337.3 1093.8 335.7 1093.5 334.7 C 1092.9 333.1 1090.2 333 1055.1 333 L 1017.4 333 L 1003 412.7 C 995.1 456.6 988.4 493.7 988.2 495.2 L 987.8 498 L 1027.6 498 L 1067.5 498 L 1075.9 444.7 C 1080.5 415.5 1085.2 388.6 1086.3 385 C 1090 372.7 1094.9 365.5 1101.3 363.1 C 1105.2 361.6 1107.6 361.7 1111.5 363.5 C 1115.5 365.5 1117 368.6 1117 375.2 C 1117 379.3 1099.6 486.5 1097.5 495.7 L 1097 498 L 1136.9 498 L 1176.8 498 L 1177.4 495.2 C 1177.7 493.7 1182.3 468 1187.5 438 C 1197.6 380.1 1198.4 372.7 1195.4 361.5 C 1191.3 345.7 1178.8 334.2 1160.5 329.5 C 1153 327.6 1135.5 326.8 1127.5 328 Z"
        fill="#ffffff"
        stroke="#00000000"
        stroke-width="0.1"/>
    <path
        id="path_8"
        d="M 1233 333.8 C 1233 334.2 1226.7 370.7 1219 414.9 C 1211.3 459.1 1205 495.8 1205 496.6 C 1205 497.8 1210.9 498 1243.7 497.8 L 1282.4 497.5 L 1297.1 418.5 C 1305.2 375 1312.2 338 1312.5 336.2 L 1313.1 333 L 1273 333 C 1251 333 1233 333.4 1233 333.8 Z"
        fill="#ffffff"
        stroke="#00000000"
        stroke-width="0.1"/>
    <path
        id="path_36"
        d="M 375 918 L 375 975 L 383.5 975 L 392 975 L 392 918 L 392 861 L 383.5 861 L 375 861 Z"
        fill="#ffffff"
        stroke="#00000000"
        stroke-width="0.1"/>
    <path
        id="path_37"
        d="M 225.9 868.4 C 216.3 871.8 210.1 878.3 208 887.1 C 205.4 898 209 910.5 216.7 917 C 218.8 918.7 226.8 923.2 234.6 927 C 250.4 934.7 254.4 937.5 256 942.5 C 260.1 955 245.2 964.7 229.8 959.5 C 225.2 957.9 220 953.7 216.4 948.7 L 214.4 945.9 L 209.5 948.6 C 199.4 954 199.8 953.6 201.6 957.2 C 202.5 958.9 205.3 962.4 207.9 965 C 225.4 982.5 260.9 980.1 271.3 960.6 C 273.1 957.2 273.5 954.9 273.5 946.5 C 273.5 938.2 273.1 935.8 271.3 932.5 C 267.3 925 260.4 919.8 243.8 911.7 C 233.2 906.5 227.7 903.3 226.5 901.4 C 220 891.5 228.2 880.6 240.7 882.5 C 244.5 883.1 246.3 884.1 250 887.7 L 254.5 892.2 L 259.5 889.5 C 268.8 884.5 268.7 884.7 265.7 880.1 C 259.9 871.4 250.5 867 237.7 867 C 233.2 867.1 227.9 867.7 225.9 868.4 Z"
        fill="#ffffff"
        stroke="#00000000"
        stroke-width="0.1"/>
    <path
        id="path_38"
        d="M 865 921.5 L 865 975 L 873.5 975 L 882 975 L 882 958 L 882 941 L 905 941 L 928 941 L 928 933 L 928 925 L 905 925 L 882 925 L 882 904.5 L 882 884 L 907 884 L 932 884 L 932 876 L 932 868 L 898.5 868 L 865 868 Z"
        fill="#ffffff"
        stroke="#00000000"
        stroke-width="0.1"/>
    <path
        id="path_39"
        d="M 950.9 875.9 C 945 881.9 948.3 892.9 956.4 894.4 C 964.3 895.9 971 889.2 969.5 881.4 C 968 873.3 956.8 870 950.9 875.9 Z"
        fill="#ffffff"
        stroke="#00000000"
        stroke-width="0.1"/>
    <path
        id="path_40"
        d="M 1383.1 874.4 C 1379.9 876.2 1378.1 879.7 1378 884.1 C 1377.9 895.1 1393.9 898.6 1398.6 888.7 C 1403.3 878.9 1392.6 869.1 1383.1 874.4 Z"
        fill="#ffffff"
        stroke="#00000000"
        stroke-width="0.1"/>
    <path
        id="path_41"
        d="M 586 877.8 C 581.8 879.8 578.3 885.9 577.4 892.4 C 576.7 897 576.7 897 579.7 897 C 581.4 897 584.1 897.3 585.7 897.6 C 588.4 898.1 588.8 897.9 589.4 895.4 C 591.1 888.9 593.3 888.6 600.6 893.6 C 610.7 900.6 619.8 898.9 624.8 889 C 626 886.6 627 882.9 627 880.8 C 627 877.3 626.8 877 624.1 877 C 622.5 877 619.8 876.7 618.1 876.4 C 615.4 875.8 615 876 615 877.9 C 615 884 610.9 885.6 605.6 881.6 C 597.8 875.7 592.2 874.6 586 877.8 Z"
        fill="#ffffff"
        stroke="#00000000"
        stroke-width="0.1"/>
    <path
        id="path_42"
        d="M 314.4 908 C 303.4 910.3 292.9 919.3 289 929.8 C 286.2 937.1 286.6 949.1 289.7 956.2 C 297.4 973.4 318.1 981.2 337.4 974 C 345 971.1 351.3 965.2 355.2 957.3 C 358.1 951.4 358.4 949.8 358.4 942 C 358.4 934.2 358.1 932.6 355.2 926.7 C 351.2 918.7 345 912.9 337.1 910 C 330.7 907.6 320.5 906.7 314.4 908 Z M 329.7 923.5 C 334.7 925.6 336.9 927.7 339.1 932.5 C 342.4 939.7 341.1 951 336.2 956.3 C 328.6 964.8 313.2 963.3 307.5 953.6 C 297.5 936.5 312.5 916.3 329.7 923.5 Z"
        fill="#ffffff"
        stroke="#00000000"
        stroke-width="0.1"/>
    <path
        id="path_43"
        d="M 519.2 908 C 509 910.2 499.9 917.7 495.2 927.9 C 491.5 935.9 491.5 948.1 495.2 956.1 C 499.5 965.5 507.6 972.6 517.3 975.4 C 518.7 975.8 519 977.1 519 982.8 L 519 989.7 L 523.2 990.3 C 527.5 990.9 531 993.7 531 996.6 C 531 998.9 527.2 1002 524.5 1002 C 523.1 1002 520.8 1000.9 519.4 999.5 L 516.8 996.9 L 512.4 999.5 C 508.8 1001.6 508.2 1002.4 508.9 1003.8 C 511.5 1008.7 518.3 1012 525.5 1012 C 531.7 1012 535.2 1010.6 539 1006.5 C 541.2 1004.2 541.5 1002.9 541.5 997 C 541.5 990.5 541.3 989.9 538.1 986.6 C 536.2 984.7 533.4 982.8 531.8 982.5 C 529.7 982 529 981.3 529 979.5 C 529 977.5 529.7 977.1 534.9 976.2 C 543.5 974.7 555 968.1 555 964.6 C 555 964 552.5 961.3 549.4 958.7 L 543.9 954.1 L 541.7 956.1 C 534.6 962.8 523.7 963.5 516.5 957.8 C 508.8 951.7 507.8 935.5 514.8 927.6 C 517 925.2 523.8 922 527 922 C 531.6 922 536.8 924 540.1 927 L 543.3 930 L 548.7 925.9 C 551.6 923.6 554.3 921.3 554.6 920.8 C 555.6 919.3 549 913.1 543.5 910.5 C 537.8 907.7 526.3 906.5 519.2 908 Z"
        fill="#ffffff"
        stroke="#00000000"
        stroke-width="0.1"/>
    <path
        id="path_44"
        d="M 592 908.5 C 585.4 910.4 577.1 915.6 573.6 920.3 C 568.5 927 566.6 932.8 566.6 942 C 566.6 954.9 571.2 963.8 581.3 970.5 C 596.3 980.4 616.8 978.3 628.8 965.6 C 635.3 958.7 637.5 952.8 637.5 942 C 637.5 931.2 635.3 925.3 628.8 918.4 C 619.9 908.9 604.9 904.9 592 908.5 Z M 612.4 925.1 C 617.9 928.8 620.5 934.3 620.5 942 C 620.5 947.3 620 949.4 617.8 953.2 C 612.1 962.9 598.3 964.9 589.6 957.2 C 582.7 951 582.2 935 588.8 927.6 C 594 921.7 605.7 920.5 612.4 925.1 Z"
        fill="#ffffff"
        stroke="#00000000"
        stroke-width="0.1"/>
    <path
        id="path_45"
        d="M 674 908.5 C 667.8 910.2 659.4 915.6 656.3 919.8 C 650.5 927.6 649.5 931 649.5 942 C 649.5 951.1 649.8 953.2 651.9 957.4 C 658.4 970.7 673.9 978.3 690.8 976.6 C 701 975.5 714 969.4 714 965.7 C 714 963.5 704.3 954.7 703.5 956 C 703.1 956.7 700.4 958.3 697.6 959.6 C 691.7 962.4 681.9 962.8 676.7 960.6 C 672.9 959 668.5 954.5 667.1 950.7 L 666 948 L 692.5 948 L 719 948 L 719 944.7 C 719 934.1 713.7 920.5 707.6 915.3 C 699.3 908.2 685.2 905.4 674 908.5 Z M 693.5 923.9 C 696.9 925.9 701 931.4 701 934.1 C 701 935.9 699.9 936 683.5 936 C 673.9 936 666 935.8 666 935.5 C 666 935.2 666.9 933.2 668 931 C 672.5 922.1 684.5 918.8 693.5 923.9 Z"
        fill="#ffffff"
        stroke="#00000000"
        stroke-width="0.1"/>
    <path
        id="path_46"
        d="M 746.7 908.4 C 737.4 910.9 732.8 916.1 732.2 924.9 C 731.3 937.1 736.4 943.3 750.7 947.5 C 762.9 951 766.4 952.9 766.8 956.1 C 767.7 964.2 749.9 965.4 741.7 957.7 C 738.6 954.8 738.5 954.8 735.5 956.4 C 733.8 957.3 731.1 959.2 729.5 960.5 L 726.5 962.8 L 730 966.5 C 737 973.8 749.7 977.8 761.5 976.5 C 776.6 974.8 784.3 966.3 782.7 952.9 C 781.5 943.3 775.3 938.3 759.1 934 C 754.5 932.7 749.9 930.9 748.8 929.8 C 744.2 925.2 748.7 920.4 757 921.2 C 761.3 921.6 763.1 922.5 768.6 926.5 C 769.6 927.2 771.2 926.3 774.5 923 C 777 920.6 779 918 779 917.4 C 779 915.6 770.2 910.1 764.6 908.5 C 758.6 906.7 753.2 906.7 746.7 908.4 Z"
        fill="#ffffff"
        stroke="#00000000"
        stroke-width="0.1"/>
    <path
        id="path_47"
        d="M 1020.5 907.9 C 1016 909.1 1012.9 910.9 1008.6 914.9 L 1004.8 918.5 L 1005.3 913.7 L 1005.8 909 L 997.4 909 L 989 909 L 989 942 L 989 975 L 997.5 975 L 1006 975 L 1006 954.1 C 1006 934.1 1006.1 933.2 1008.3 929.9 C 1012.4 923.6 1022.3 921 1028.9 924.5 C 1034.3 927.2 1035 930.6 1035 953.9 L 1035 975 L 1043.6 975 L 1052.2 975 L 1051.8 950.2 C 1051.5 929.8 1051.1 924.9 1049.7 921.9 C 1047.3 916.6 1043.3 912.2 1038.9 909.9 C 1034.6 907.7 1025.1 906.7 1020.5 907.9 Z"
        fill="#ffffff"
        stroke="#00000000"
        stroke-width="0.1"/>
    <path
        id="path_48"
        d="M 1090.4 908 C 1088.2 908.4 1084.7 909.5 1082.8 910.3 C 1078.8 912 1072 917.7 1072 919.4 C 1072 920 1073.9 922.5 1076.3 924.8 L 1080.7 929.1 L 1085.7 925.7 C 1096.9 918.2 1108.5 921 1110.6 931.7 L 1111.3 935 L 1100.4 935 C 1088.4 935 1079.1 936.8 1075.1 939.7 C 1066.8 945.9 1064.6 958.7 1070.4 967.2 C 1077.2 977.4 1094.9 980 1106 972.5 L 1111 969.1 L 1111 972.1 L 1111 975 L 1119.6 975 L 1128.2 975 L 1127.8 950.7 C 1127.5 928.5 1127.3 926.1 1125.4 922 C 1122.8 916.5 1117.8 911.7 1112.6 909.5 C 1107.9 907.5 1096.2 906.7 1090.4 908 Z M 1111 950.9 C 1111 957.9 1104.7 963 1096 963 C 1087.3 963 1082.8 958.9 1084.4 952.4 C 1085.4 948.6 1090 947.1 1101.3 947 L 1111 947 Z"
        fill="#ffffff"
        stroke="#00000000"
        stroke-width="0.1"/>
    <path
        id="path_49"
        d="M 1175.2 908.9 C 1172.3 909.9 1168.3 912.2 1166.4 914.1 L 1163 917.4 L 1163 913.2 L 1163 909 L 1154.5 909 L 1146 909 L 1146 942 L 1146 975 L 1154.5 975 L 1163 975 L 1163 955 C 1163 936.8 1163.2 934.5 1165 931 C 1170 921.2 1185.8 920.2 1190.7 929.3 C 1192.2 932 1192.5 935.8 1192.8 953.7 L 1193.2 975 L 1201.1 975 L 1209.1 975 L 1208.8 949.7 C 1208.5 921.1 1208.1 919.7 1200 912.7 C 1193.3 907 1184.6 905.6 1175.2 908.9 Z"
        fill="#ffffff"
        stroke="#00000000"
        stroke-width="0.1"/>
    <path
        id="path_50"
        d="M 1249.7 908.1 C 1239.8 910.4 1229.9 918.5 1225.7 927.8 C 1222.6 934.5 1222.6 949.5 1225.7 956.2 C 1228.9 963.3 1236 970.3 1243.3 973.6 C 1248.7 976.1 1250.7 976.4 1259 976.4 C 1270.2 976.4 1276.5 974.2 1282.5 968 L 1286.2 964.2 L 1282 960.4 C 1274.7 953.8 1274.9 953.9 1271.3 957 C 1268 960 1262.5 962 1258 962 C 1254.2 961.9 1247.7 958.6 1244.8 955.2 C 1239.1 948.3 1239.1 935.7 1244.8 928.8 C 1247.8 925.3 1254.2 922.1 1258.3 922 C 1262.1 922 1267.9 924.6 1271.2 927.7 L 1273.9 930.3 L 1279.9 925.4 C 1285.4 920.9 1285.8 920.4 1284.6 918.5 C 1282.2 914.9 1274.5 910.1 1268.5 908.5 C 1262 906.9 1255.6 906.7 1249.7 908.1 Z"
        fill="#ffffff"
        stroke="#00000000"
        stroke-width="0.1"/>
    <path
        id="path_51"
        d="M 1321.4 908.4 C 1310.8 911 1302.9 917.7 1298.1 928 C 1296 932.5 1295.6 935 1295.6 942 C 1295.6 953 1298.9 961 1306.2 967.5 C 1319.4 979.4 1343 979.9 1358.2 968.7 C 1359.7 967.5 1361 966.2 1361 965.8 C 1361 965.3 1358.9 962.7 1356.4 960 L 1351.9 955.2 L 1346.8 958.3 C 1342.7 960.9 1340.4 961.5 1334.8 961.8 C 1325.6 962.4 1319.9 960.2 1315.9 954.7 C 1310.9 947.8 1310 948 1339 948 L 1365 948 L 1365 942.1 C 1365 918 1345.1 902.7 1321.4 908.4 Z M 1340.8 924.2 C 1343.7 926 1348 932.3 1348 935 C 1348 935.6 1341.9 936 1330.5 936 C 1311.2 936 1311.2 936 1315.3 930 C 1321.1 921.4 1332 918.9 1340.8 924.2 Z"
        fill="#ffffff"
        stroke="#00000000"
        stroke-width="0.1"/>
    <path
        id="path_52"
        d="M 1447.6 908.2 C 1445.5 908.8 1442 911 1439.9 913.1 L 1436 917 L 1436 913 L 1436 909 L 1427.5 909 L 1419 909 L 1419 942 L 1419 975 L 1427.5 975 L 1436 975 L 1436 955.2 C 1436 931.3 1436.9 928.3 1444.7 924.8 C 1448.8 923 1449.9 922.9 1454.4 923.9 C 1457.1 924.5 1459.7 924.7 1460.1 924.3 C 1461.1 923.3 1465 912.9 1465 911.3 C 1465 908.3 1454.2 906.3 1447.6 908.2 Z"
        fill="#ffffff"
        stroke="#00000000"
        stroke-width="0.1"/>
    <path
        id="path_53"
        d="M 1492.5 908.3 C 1486.1 910 1482.2 912.1 1478 916 L 1474.7 919.1 L 1479.7 924.2 L 1484.8 929.3 L 1488.6 926.2 C 1493.5 922.3 1500.7 920.6 1506.1 922 C 1510.4 923.2 1512.8 926 1514 931.4 L 1514.7 934.8 L 1501 935.2 C 1488.2 935.6 1486.8 935.8 1481.4 938.6 C 1473.8 942.4 1471 946.9 1471 955.5 C 1471 967.4 1476.9 974.2 1489.2 976.2 C 1498 977.7 1505.4 976.1 1510.9 971.4 L 1515 967.8 L 1515 971.4 L 1515 975 L 1523 975 L 1531 975 L 1531 951.6 C 1531 926.3 1530.5 922.9 1525.3 916.2 C 1519.8 909 1504.3 905.3 1492.5 908.3 Z M 1515 949.5 C 1515 954.7 1512.3 959 1507.8 961 C 1496.8 966 1483.7 960.1 1488 952 C 1489.9 948.4 1494.6 947.1 1505.3 947 L 1515 947 Z"
        fill="#ffffff"
        stroke="#00000000"
        stroke-width="0.1"/>
    <path
        id="path_54"
        d="M 1561.7 908.4 C 1551.9 911.1 1547.7 916.2 1547.2 925.9 C 1546.5 938.2 1550.6 942.6 1568.2 948.4 C 1579.1 952 1580.6 952.8 1581.4 955.3 C 1582.2 957.6 1582 958.4 1580.2 960.3 C 1578.3 962.2 1576.9 962.5 1570.6 962.5 C 1563.2 962.5 1562.1 962 1553.5 955.6 C 1552.4 954.8 1542 961.3 1542 962.9 C 1542 963.3 1543.4 965.1 1545.2 966.9 C 1556.9 978.9 1583.4 980.3 1592.9 969.4 C 1599.4 962.1 1599.5 949.7 1593.2 942.7 C 1590.6 939.8 1583.4 936.5 1574.5 934.1 C 1564.8 931.4 1562 929.7 1562 926.5 C 1562 919.8 1575.1 919 1581.8 925.3 L 1584 927.4 L 1588.7 922.9 C 1591.3 920.5 1593.7 918.4 1593.9 918.2 C 1594.2 918.1 1593.1 916.7 1591.6 915.1 C 1585.5 908.7 1571.5 905.6 1561.7 908.4 Z"
        fill="#ffffff"
        stroke="#00000000"
        stroke-width="0.1"/>
    <path
        id="path_55"
        d="M 413.2 933.2 C 413.5 956.1 413.6 957.8 415.8 962.5 C 420.4 972.6 426.6 976.4 438 976.4 C 446.7 976.4 451.8 974.3 456.7 968.7 L 459.7 965.3 L 459.2 970.1 L 458.7 975 L 467.4 975 L 476 975 L 476 942 L 476 909 L 467.5 909 L 459 909 L 459 929.2 C 459 952 458.4 954.5 452.1 958.7 C 448.1 961.4 440.4 961.8 436.1 959.5 C 430.7 956.8 430 953.4 430 930.1 L 430 909 L 421.4 909 L 412.8 909 Z"
        fill="#ffffff"
        stroke="#00000000"
        stroke-width="0.1"/>
    <path
        id="path_56"
        d="M 950 942 L 950 975 L 958.5 975 L 967 975 L 967 942 L 967 909 L 958.5 909 L 950 909 Z"
        fill="#ffffff"
        stroke="#00000000"
        stroke-width="0.1"/>
    <path
        id="path_57"
        d="M 1380 942 L 1380 975 L 1388.5 975 L 1397 975 L 1397 942 L 1397 909 L 1388.5 909 L 1380 909 Z"
        fill="#ffffff"
        stroke="#00000000"
        stroke-width="0.1"/>
</svg>
